#N canvas 118 46 696 802 12;
#X obj 32 110 adc~;
#X obj 96 662 delwrite~ phase1 100;
#X obj 260 661 delwrite~ phase2 100;
#X obj 165 241 phasor~;
#X obj 165 369 cos~;
#X obj 165 396 *~ 2;
#X obj 165 422 +~ 2;
#X obj 95 527 vd~ phase1;
#X obj 96 614 *~ 0.8;
#X obj 210 319 +~ 0.5;
#X obj 209 145 hsl 64 15 0 4 0 0 empty empty empty -2 -8 0 10 #fcfcfc
#000000 #000000 500 1;
#X floatatom 211 206 5 0 0 0 - - -, f 5;
#X obj 210 343 wrap~;
#X obj 210 370 cos~;
#X obj 210 395 *~ 2;
#X obj 210 421 +~ 2;
#X obj 260 615 *~ 0.8;
#X obj 260 530 vd~ phase2;
#X obj 293 283 hsl 64 15 0 4 0 0 empty empty empty -2 -8 0 10 #fcfcfc
#000000 #000000 3150 1;
#X floatatom 293 343 5 0 0 0 - - -, f 5;
#X obj 378 497 hsl 64 15 -1 1 0 0 empty empty empty -2 -8 0 10 #fcfcfc
#000000 #000000 3150 1;
#X floatatom 378 545 5 0 0 0 - - -, f 5;
#X obj 170 753 dac~;
#X text 13 11 https://guitarextended.wordpress.com/2011/12/28/phaserchorus-effect-with-pure-data/
;
#X obj 209 60 loadbang;
#X msg 310 309 r Knob2 @hv_param 2.4 2 3;
#X msg 236 171 r Knob1 @hv_param 0.3 0.1 0.9;
#X text 250 117 rate;
#X text 342 255 depth;
#X text 381 472 feedback;
#X obj 31 234 s~ adc;
#X obj 176 623 r~ adc;
#X obj 66 182 *~ 0.1;
#X obj 93 100 hsl 64 15 50 200 0 0 empty empty empty -2 -8 0 10 #fcfcfc
#000000 #000000 2463 1;
#X floatatom 93 122 5 0 0 0 - - -, f 5;
#X obj 66 155 phasor~;
#X msg 394 518 r Knob3 @hv_param 0 -1 1;
#X connect 0 0 30 0;
#X connect 3 0 4 0;
#X connect 3 0 9 0;
#X connect 4 0 5 0;
#X connect 5 0 6 0;
#X connect 6 0 7 0;
#X connect 7 0 8 0;
#X connect 7 0 22 0;
#X connect 8 0 1 0;
#X connect 9 0 12 0;
#X connect 10 0 11 0;
#X connect 11 0 3 1;
#X connect 12 0 13 0;
#X connect 13 0 14 0;
#X connect 14 0 15 0;
#X connect 15 0 17 0;
#X connect 16 0 2 0;
#X connect 17 0 16 0;
#X connect 17 0 22 1;
#X connect 18 0 19 0;
#X connect 19 0 5 1;
#X connect 19 0 14 1;
#X connect 19 0 6 1;
#X connect 19 0 15 1;
#X connect 20 0 21 0;
#X connect 21 0 8 1;
#X connect 21 0 16 1;
#X connect 24 0 10 0;
#X connect 25 0 19 0;
#X connect 26 0 11 0;
#X connect 31 0 1 0;
#X connect 31 0 2 0;
#X connect 31 0 22 0;
#X connect 31 0 22 1;
#X connect 32 0 30 0;
#X connect 33 0 34 0;
#X connect 34 0 35 0;
#X connect 35 0 32 0;
#X connect 36 0 21 0;
