#N canvas 1187 549 350 365 12;
#X obj 202 130 osc~;
#X obj 202 168 +~ 1;
#X msg 202 92 20;
#X obj 202 54 loadbang;
#X obj 202 206 *~ 0.5;
#X obj 115 246 *~;
#X obj 115 284 dac~;
#X obj 115 208 adc~;
#X text 9 10 http://write.flossmanuals.net/pure-data/amplitude-modulation
;
#X obj 67 54 r Knob1 @hv_param;
#X connect 0 0 1 0;
#X connect 1 0 4 0;
#X connect 2 0 0 0;
#X connect 3 0 2 0;
#X connect 4 0 5 1;
#X connect 5 0 6 0;
#X connect 7 0 5 0;
